<svg width="17" height="17" viewBox="0 0 17 17" fill="none" xmlns="http://www.w3.org/2000/svg">
<path d="M13.0237 12.0588L16.325 15.36L15.2349 16.4501L11.9336 13.1489C10.7466 14.0986 9.24125 14.6667 7.604 14.6667C3.7745 14.6667 0.666504 11.5587 0.666504 7.72917C0.666504 3.89967 3.7745 0.791667 7.604 0.791667C11.4335 0.791667 14.5415 3.89967 14.5415 7.72917C14.5415 9.36642 13.9734 10.8718 13.0237 12.0588ZM11.4772 11.4868C12.4198 10.5154 12.9998 9.19036 12.9998 7.72917C12.9998 4.74797 10.5852 2.33333 7.604 2.33333C4.62281 2.33333 2.20817 4.74797 2.20817 7.72917C2.20817 10.7104 4.62281 13.125 7.604 13.125C9.0652 13.125 10.3903 12.5449 11.3617 11.6024L11.4772 11.4868Z" fill="#E6E6E6"/>
</svg>
